<svg xmlns="http://www.w3.org/2000/svg" width="640" height="450" viewBox="0 0 640 450" role="img" aria-labelledby="title desc">
<title id="title">Zubair Emritte — Data science, with business in mind</title>
<desc id="desc">Compact profile banner for smaller screens. France and Luxembourg.</desc>
<rect width="640" height="450" rx="20" fill="#10252D"/>
<path d="M 32 352 H 608" stroke="#AFCAB1" stroke-opacity=".25"/>
<circle cx="595" cy="85" r="120" fill="none" stroke="#C5EC85" stroke-opacity=".09" stroke-width="36"/>
<rect x="34" y="35" width="7" height="16" rx="2" fill="#C5EC85"/>
<text x="54" y="48" fill="#C5EC85" font-family="Arial, Helvetica, sans-serif" font-size="16" font-weight="600" letter-spacing="1.4">ECONOMICS / DATA / DECISIONS</text><text x="30" y="145" fill="#F5F5E9" font-family="Arial, Helvetica, sans-serif" font-size="72" font-weight="700" letter-spacing="-2">Zubair</text><text x="30" y="221" fill="#F5F5E9" font-family="Arial, Helvetica, sans-serif" font-size="72" font-weight="700" letter-spacing="-2">Emritte</text><text x="34" y="282" fill="#DCE7DD" font-family="Arial, Helvetica, sans-serif" font-size="27" font-weight="400" letter-spacing="0">Data science,</text><text x="34" y="322" fill="#DCE7DD" font-family="Arial, Helvetica, sans-serif" font-size="27" font-weight="400" letter-spacing="0">with business in mind.</text><text x="34" y="403" fill="#C5EC85" font-family="Arial, Helvetica, sans-serif" font-size="19" font-weight="600" letter-spacing="1.5">FRANCE + LUXEMBOURG</text><g transform="translate(438 151) scale(0.46)"><path d="M 18 92 L 100 40" stroke="#C5EC85" stroke-width="1.5" opacity=".36"/><path d="M 100 40 L 185 78" stroke="#C5EC85" stroke-width="1.5" opacity=".36"/><path d="M 18 92 L 52 190" stroke="#C5EC85" stroke-width="1.5" opacity=".36"/><path d="M 100 40 L 155 173" stroke="#C5EC85" stroke-width="1.5" opacity=".36"/><path d="M 185 78 L 155 173" stroke="#C5EC85" stroke-width="1.5" opacity=".36"/><path d="M 185 78 L 253 128" stroke="#C5EC85" stroke-width="1.5" opacity=".36"/><path d="M 52 190 L 155 173" stroke="#C5EC85" stroke-width="1.5" opacity=".36"/><path d="M 52 190 L 146 278" stroke="#C5EC85" stroke-width="1.5" opacity=".36"/><path d="M 155 173 L 228 223" stroke="#C5EC85" stroke-width="1.5" opacity=".36"/><path d="M 155 173 L 146 278" stroke="#C5EC85" stroke-width="1.5" opacity=".36"/><path d="M 228 223 L 253 128" stroke="#C5EC85" stroke-width="1.5" opacity=".36"/><path d="M 228 223 L 146 278" stroke="#C5EC85" stroke-width="1.5" opacity=".36"/><circle cx="18" cy="92" r="7" fill="#C5EC85" opacity="0.75"/><circle cx="100" cy="40" r="7" fill="#C5EC85" opacity="0.75"/><circle cx="185" cy="78" r="7" fill="#C5EC85" opacity="0.75"/><circle cx="52" cy="190" r="7" fill="#C5EC85" opacity="0.75"/><circle cx="155" cy="173" r="15" fill="#C5EC85" opacity="1"/><circle cx="228" cy="223" r="7" fill="#C5EC85" opacity="0.75"/><circle cx="253" cy="128" r="7" fill="#C5EC85" opacity="0.75"/><circle cx="146" cy="278" r="7" fill="#C5EC85" opacity="0.75"/><circle cx="155" cy="173" r="34" fill="none" stroke="#C5EC85" stroke-width="1" opacity=".3"/></g>
</svg>
