<svg xmlns="http://www.w3.org/2000/svg" width="1440" height="412" viewBox="0 0 1440 412" role="img" aria-labelledby="title desc">
<title id="title">Zubair Emritte — Data science, with business in mind</title>
<desc id="desc">A typographic profile cover with a custom ZE monogram. Applied economics, statistics, BI and causal analytics.</desc>
<rect x="0" y="0" width="1440" height="412" fill="#F4F0E7" stroke="none" stroke-width="1"/>
<rect x="0" y="0" width="8" height="412" fill="#AA402E" stroke="none" stroke-width="1"/>
<text x="56" y="48" fill="#242D2A" font-family="'Courier New', Courier, monospace" font-size="17" font-weight="400" letter-spacing="0.65">DATA SCIENTIST &amp; ANALYST</text>
<text x="1210" y="48" fill="#242D2A" font-family="'Courier New', Courier, monospace" font-size="16" font-weight="400" letter-spacing="0.65">PORTFOLIO / ZE</text>
<path d="M56 70H1384" stroke="#C3BDB0" stroke-width="1"/>
<text x="50" y="196" fill="#242D2A" font-family="Georgia, 'Times New Roman', serif" font-size="106" font-weight="400" letter-spacing="-3">Zubair Emritte</text>
<text x="57" y="257" fill="#242D2A" font-family="Arial, Helvetica, sans-serif" font-size="31" font-weight="400" letter-spacing="0">Data science, with business in mind.</text>
<path d="M1037 108L1037 283" stroke="#C3BDB0" stroke-width="1"/>
<g transform="translate(1132 117) scale(1.28)" fill="#AA402E"><path d="M0 0H82V15L24 99H83V115H0V100L59 16H0Z"/><path d="M99 0H165V16H117V46H156V62H117V99H165V115H99Z"/></g>
<path d="M56 323H1384" stroke="#C3BDB0" stroke-width="1"/>
<text x="56" y="367" fill="#242D2A" font-family="'Courier New', Courier, monospace" font-size="16" font-weight="400" letter-spacing="0.65">APPLIED ECONOMICS / STATISTICS</text>
<text x="931" y="367" fill="#AA402E" font-family="'Courier New', Courier, monospace" font-size="16" font-weight="400" letter-spacing="0.65">BI / CAUSAL ANALYTICS / DATA</text>
</svg>
